<svg width="24" height="24" viewBox="0 0 24 24" fill="none" xmlns="http://www.w3.org/2000/svg">
<path d="M18.7122 12.1543C18.7122 11.7028 18.6722 11.2743 18.6036 10.8571H12.1465V13.4343H15.8436C15.6779 14.28 15.1922 14.9943 14.4722 15.48V17.1943H16.6779C17.9693 16 18.7122 14.24 18.7122 12.1543Z" fill="#4285F4"/>
<path d="M12.1454 18.8572C13.9968 18.8572 15.5454 18.2401 16.6768 17.1944L14.4711 15.4801C13.854 15.8915 13.0711 16.1429 12.1454 16.1429C10.3568 16.1429 8.84253 14.9372 8.29968 13.3087H6.02539V15.0744C7.1511 17.3144 9.46539 18.8572 12.1454 18.8572Z" fill="#34A853"/>
<path d="M8.30049 13.3086C8.15763 12.8971 8.08335 12.4571 8.08335 12C8.08335 11.5429 8.16335 11.1029 8.30049 10.6914V8.92572H6.0262C5.55763 9.85143 5.28906 10.8914 5.28906 12C5.28906 13.1086 5.55763 14.1486 6.0262 15.0743L8.30049 13.3086Z" fill="#FBBC05"/>
<path d="M12.1454 7.85717C13.1568 7.85717 14.0597 8.20574 14.774 8.88574L16.7282 6.93146C15.5454 5.82288 13.9968 5.14288 12.1454 5.14288C9.46539 5.14288 7.1511 6.68574 6.02539 8.92574L8.29968 10.6915C8.84253 9.06288 10.3568 7.85717 12.1454 7.85717Z" fill="#EA4335"/>
</svg>
