<svg xmlns="http://www.w3.org/2000/svg" width="14" height="14" viewBox="0 0 14 14">
  <path fill="#FFF" d="M611.003096,907.406273 C609.015613,907.406273 607.412498,909.009388 607.412498,910.996902 C607.412498,912.984385 609.015613,914.5875 611.003096,914.5875 C612.99061,914.5875 614.593725,912.984385 614.593725,910.996902 C614.593725,909.009388 612.99061,907.406273 611.003096,907.406273 Z M611.003096,913.331247 C609.718736,913.331247 608.668751,912.284374 608.668751,910.996902 C608.668751,909.709398 609.715624,908.662526 611.003096,908.662526 C612.290599,908.662526 613.337472,909.709398 613.337472,910.996902 C613.337472,912.284374 612.287486,913.331247 611.003096,913.331247 Z M615.578097,907.259392 C615.578097,906.796899 615.203098,906.4219 614.740605,906.4219 C614.278113,906.4219 613.903114,906.796899 613.903114,907.259392 C613.903114,907.721885 614.274969,908.096884 614.740605,908.096884 C615.203098,908.096884 615.578097,907.725028 615.578097,907.259392 Z M617.956205,908.109396 C617.903104,906.987512 617.646849,905.99377 616.824982,905.175016 C616.006227,904.356292 615.012486,904.100037 613.890601,904.043793 C612.734354,903.97815 609.268725,903.97815 608.112478,904.043793 C606.993737,904.096894 605.999995,904.353149 605.178128,905.171903 C604.356261,905.990657 604.103119,906.984399 604.046875,908.106283 L604.028336,908.542792 C603.981989,909.966542 603.988169,912.849839 604.046875,913.884376 C604.100006,915.006261 604.356261,916.000002 605.178128,916.818757 C605.999995,917.637511 606.990624,917.893736 608.112478,917.95001 L608.548988,917.968549 C609.972743,918.014896 612.856064,918.008716 613.890601,917.95001 C615.012486,917.896879 616.006227,917.640623 616.824982,916.818757 C617.643705,916.000002 617.899961,915.006261 617.956205,913.884376 C618.021848,912.728129 618.021848,909.265643 617.956205,908.109396 Z M616.462464,915.125004 C616.218721,915.737491 615.746859,916.209383 615.13123,916.456239 C614.209357,916.821869 612.021862,916.737488 611.003096,916.737488 L609.684245,916.745131 C608.665272,916.742358 607.4875,916.697917 606.874993,916.456239 C606.262507,916.212496 605.790615,915.740634 605.543759,915.125004 C605.178128,914.203132 605.262509,912.015637 605.262509,910.996902 L605.254866,909.678029 C605.25764,908.659047 605.30208,907.481275 605.543759,906.868768 C605.787502,906.256282 606.259364,905.78439 606.874993,905.537533 C607.796866,905.171903 609.984361,905.256284 611.003096,905.256284 L612.021762,905.248903 C613.099744,905.244499 614.457472,905.271687 615.13123,905.537533 C615.743716,905.781277 616.215608,906.253138 616.462464,906.868768 C616.828094,907.790641 616.743714,909.978136 616.743714,910.996902 L616.752129,912.315753 C616.749966,913.334726 616.706218,914.512498 616.462464,915.125004 Z" transform="translate(-604 -904)"/>
</svg>
